<svg width="20" height="20" viewBox="0 0 20 20" fill="none" xmlns="http://www.w3.org/2000/svg">
  <path d="M4.393 5.941c.114-.173.209-.37.31-.553A7 7 0 0 1 9.39 2.011a7.03 7.03 0 0 1 5.157 1.05 7.04 7.04 0 0 1 3.061 4.532c.043.217.08.435.11.654 1.041.814 1.653 1.615 2.062 2.914.077.243.162.866.22 1.019v1.131c-.059.157-.101.519-.144.7a6.15 6.15 0 0 1-3.019 3.65 6.1 6.1 0 0 1-1.568.439c-.517.058-1.267.037-1.806.037H7.555c-.604 0-1.38.023-1.967-.032a6.17 6.17 0 0 1-1.545-.361 6.17 6.17 0 0 1-3.7-3.776c-.034-.099-.07-.242-.11-.333-.112-.265-.117-.828-.233-1.062v-1.34c.056-.123.11-.472.14-.628a6.17 6.17 0 0 1 3.486-4.359c.189-.084.628-.23.767-.305Zm4.389 4.968c.006.667.007 1.334.003 2.001 0 .29-.02.896.04 1.152.051.229.168.438.334.603.243.238.555.335.89.329l.125-.01c.518-.113.998-.505 1.021-1.042.043-.99.003-2.046.018-3.036.49-.008.98-.009 1.47-.004.271 0 .607.02.868-.03.388-.077.571-.61.33-.922-.136-.17-.313-.334-.468-.489l-2.204-2.206c-.256-.256-.512-.517-.774-.767a.6.6 0 0 0-.46-.169l-.17.012a.92.92 0 0 0-.244.163c-.546.52-1.077 1.066-1.612 1.6-.573.57-1.147 1.144-1.714 1.721-.064.065-.159.18-.19.265a.67.67 0 0 0 .022.482c.069.146.16.233.313.286.348.12 1.92.039 2.402.06Z" fill="#FEFAF1"/>
</svg>
