<svg preserveAspectRatio="none" overflow="visible" style="display: block;" width="24" height="24" viewBox="0 0 24 24" fill="none" xmlns="http://www.w3.org/2000/svg">
<g id="rotate">
<path id="Vector" d="M13.1868 6.89509C14.3476 6.84374 14.7652 7.41877 15.5092 8.16157L16.1631 8.81467C16.3836 9.03513 16.6127 9.24509 16.7811 9.50919C16.9596 9.78893 17.0691 10.107 17.1007 10.4372C17.1562 10.9974 16.9852 11.5565 16.6257 11.9897C16.4413 12.2139 16.0412 12.5918 15.8218 12.8111L14.3189 14.3139L12.8679 15.7656C12.6173 16.0166 12.2142 16.4456 11.9402 16.6421C11.6444 16.8525 11.2981 16.9809 10.9365 17.0142C9.73836 17.0816 9.309 16.4773 8.54398 15.7126L7.92728 15.0964C7.71233 14.882 7.47648 14.663 7.3117 14.4086C7.13682 14.1382 7.02749 13.8307 6.99243 13.5105C6.92664 12.9396 7.09465 12.3664 7.45821 11.9214C7.64656 11.6881 8.04056 11.3175 8.26504 11.093L9.73874 9.61925L11.2008 8.15666C11.8414 7.51434 12.2149 6.99569 13.1868 6.89509Z" fill="#292929"/>
<path id="Vector_2" d="M11.4057 0H12.7362C12.8452 0.0361535 13.2813 0.0522519 13.4357 0.0711652C13.8654 0.124104 14.2924 0.19723 14.7152 0.2903C15.9252 0.563566 17.085 1.02435 18.1527 1.65595C18.3477 1.77115 18.5391 1.89253 18.7263 2.01991C18.868 2.11685 19.0325 2.24334 19.1811 2.32392C19.386 2.10995 19.6012 1.90325 19.8086 1.69137C19.9146 1.58288 20.0305 1.4689 20.1537 1.38105C20.3004 1.2778 20.4622 1.19768 20.6333 1.14351C21.0854 0.997702 21.5773 1.04066 21.9973 1.26264C22.4127 1.48013 22.7239 1.85466 22.8618 2.30286C22.978 2.68499 22.9413 3.30648 22.9412 3.72452L22.9407 5.46955L22.9412 6.78609C22.9413 7.02785 22.9508 7.37879 22.9262 7.60996C22.9035 7.83354 22.8362 8.0503 22.7283 8.24741C22.502 8.66425 22.1195 8.97421 21.6648 9.10921C21.0959 9.27373 20.4823 9.14089 20.0324 8.75577C19.6478 8.4205 19.4829 7.94804 19.2115 7.5037C18.4486 6.26175 17.373 5.24179 16.0924 4.54577C12.952 2.84395 9.07857 3.31591 6.43867 5.72202C6.17741 5.95864 5.86441 6.28471 5.64104 6.55921C5.23876 7.05359 5.03719 7.45214 4.36595 7.64886C3.91964 7.77889 3.43983 7.72439 3.03407 7.49754C2.62058 7.27175 2.31485 6.88964 2.18527 6.43669C2.05598 5.98059 2.1147 5.49173 2.34831 5.07922C2.54142 4.73827 3.09595 4.08496 3.36973 3.79421C4.91366 2.12879 6.90403 0.942581 9.10346 0.377031C9.58934 0.251839 10.0825 0.156852 10.5801 0.0926137C10.7245 0.0737855 10.8694 0.0587884 11.0146 0.0476384C11.124 0.0386512 11.3049 0.0312139 11.4057 0Z" fill="#292929"/>
<path id="Vector_3" d="M4.82196 21.6783C4.19464 22.2684 3.73853 22.974 2.78452 22.9443C2.31002 22.9309 1.8604 22.7291 1.53512 22.3834C1.31698 22.152 1.16626 21.8653 1.0993 21.5544C1.0422 21.2775 1.05526 20.8877 1.05529 20.5942L1.0557 19.4271L1.05548 17.5689C1.05533 17.2403 1.0522 16.9062 1.05839 16.5763C1.08876 14.9572 3.03292 14.2238 4.13223 15.4045C4.35629 15.6452 4.48229 15.9683 4.64359 16.2543C4.81215 16.5518 4.99932 16.8386 5.20398 17.1125C6.66575 19.0736 8.91468 20.2939 11.3555 20.4507C13.5581 20.6003 15.7302 19.8694 17.3944 18.4186C17.8444 18.0226 18.2475 17.6057 18.6048 17.1221C18.669 17.0353 18.7403 16.9388 18.8126 16.8588C19.1742 16.4621 19.6971 16.2523 20.2327 16.2887C20.7012 16.3219 21.1377 16.5386 21.4474 16.8916C21.7584 17.2474 21.9122 17.7138 21.8738 18.1848C21.8585 18.4085 21.7992 18.627 21.6993 18.8277C21.5965 19.0332 21.4284 19.2462 21.2855 19.4288C20.7942 20.0577 20.2412 20.6357 19.6346 21.1541C18.1022 22.4641 16.2618 23.363 14.2864 23.7663C14.0311 23.8172 13.7818 23.8615 13.5275 23.8987C13.3638 23.9228 12.7198 23.9591 12.6152 24H11.2555C11.1053 23.9494 10.6427 23.9346 10.4547 23.9126C10.0557 23.8652 9.65953 23.7963 9.26801 23.7061C8.06384 23.4338 6.90974 22.9745 5.84767 22.345C5.63682 22.221 5.43039 22.0897 5.22874 21.9513C5.10468 21.8668 4.94699 21.7471 4.82196 21.6783Z" fill="#292929"/>
</g>
</svg>
